<svg  xmlns="http://www.w3.org/2000/svg" version="1.1" xmlns:xlink="http://www.w3.org/1999/xlink" xmlns:svgjs="http://svgjs.dev/svgjs" width="2000" height="1500" viewBox="0 0 2000 1500"><rect width="2000" height="1500" fill="#293040"></rect><g transform="matrix(0.4444444444444444,0,0,0.4444444444444444,555.5556575776648,250)"><svg viewBox="0 0 320 360" data-background-color="#293040" preserveAspectRatio="xMidYMid meet" height="2250" width="2000" xmlns="http://www.w3.org/2000/svg" xmlns:xlink="http://www.w3.org/1999/xlink"><g id="tight-bounds" transform="matrix(1,0,0,1,-0.00003672795929787753,0)"><svg viewBox="0 0 320 360" height="360" width="320"><g><svg></svg></g><g><svg viewBox="0 0 320 360" height="360" width="320"><g><path transform="translate(-32.1528,-12.1528) scale(3.84303,3.84303)" d="M88.492 50l1.711-2.963c2.946-5.102 1.198-11.626-3.904-14.572l-2.963-1.711v-3.422c0-5.891-4.776-10.667-10.667-10.667h-3.422l-1.711-2.963c-2.946-5.102-9.47-6.85-14.572-3.904l-2.964 1.71-2.963-1.711c-5.102-2.945-11.626-1.197-14.572 3.905l-1.711 2.963h-3.422c-5.891 0-10.667 4.776-10.667 10.667v3.422l-2.963 1.711c-5.102 2.946-6.85 9.47-3.904 14.572l1.71 2.963-1.711 2.963c-2.945 5.102-1.197 11.626 3.905 14.572l2.963 1.711v3.422c0 5.891 4.776 10.667 10.667 10.667h3.422l1.711 2.963c2.946 5.102 9.47 6.85 14.572 3.904l2.963-1.71 2.963 1.711c5.102 2.946 11.626 1.198 14.572-3.904l1.711-2.963h3.422c5.891 0 10.667-4.776 10.667-10.667v-3.422l2.963-1.711c5.102-2.946 6.85-9.47 3.904-14.572zM85.832 33.273c2.252 1.3 3.862 3.399 4.535 5.91 0.673 2.511 0.328 5.135-0.972 7.386l-1.441 2.497-4.618-7.999v-9.236zM73.72 73.72l-15.038 8.682h-17.364l-15.038-8.682-8.682-15.038v-17.364l8.682-15.038 15.038-8.682h17.364l15.038 8.682 8.682 15.038v17.364zM82.401 60.549v8.158l-7.065 4.079zM72.786 75.336l-4.079 7.065h-8.158zM57.065 83.335l-7.065 4.079-7.065-4.079zM39.451 82.401h-8.158l-4.079-7.065zM24.664 72.786l-7.065-4.079v-8.158zM16.665 57.065l-4.079-7.065 4.079-7.065zM17.599 39.451v-8.158l7.065-4.079zM27.214 24.664l4.079-7.065h8.158zM42.935 16.665l7.065-4.079 7.065 4.079zM60.549 17.599h8.158l4.079 7.065zM75.336 27.214l7.065 4.079v8.158zM83.335 42.935l4.079 7.065-4.079 7.065zM72.668 17.599c2.6 0 5.044 1.012 6.883 2.851 1.838 1.838 2.851 4.283 2.851 6.883v2.883l-7.999-4.618-4.618-7.999zM53.43 10.606c2.252-1.3 4.875-1.645 7.386-0.972 2.511 0.673 4.61 2.284 5.91 4.535l1.441 2.497h-9.236l-7.999-4.618zM33.273 14.168c1.3-2.252 3.399-3.862 5.91-4.535 2.511-0.673 5.135-0.328 7.386 0.972l2.497 1.441-7.999 4.618h-9.236zM17.599 27.332c0-2.6 1.012-5.044 2.851-6.883 1.838-1.838 4.283-2.851 6.883-2.851h2.883l-4.618 7.999-7.999 4.618zM10.606 46.57c-1.3-2.252-1.645-4.875-0.972-7.386 0.673-2.511 2.284-4.61 4.535-5.91l2.497-1.441v9.236l-4.618 7.999zM14.168 66.727c-2.252-1.3-3.862-3.399-4.535-5.91-0.673-2.511-0.328-5.135 0.972-7.386l1.441-2.497 4.618 7.999v9.236zM27.332 82.401c-2.6 0-5.044-1.012-6.883-2.851-1.838-1.838-2.851-4.283-2.851-6.883v-2.883l7.999 4.618 4.618 7.999zM46.57 89.394c-2.252 1.3-4.875 1.645-7.386 0.972-2.511-0.673-4.61-2.284-5.91-4.535l-1.441-2.497h9.236l7.999 4.618zM66.727 85.832c-1.3 2.252-3.399 3.862-5.91 4.535-2.511 0.673-5.135 0.328-7.386-0.972l-2.497-1.441 7.999-4.618h9.236zM82.401 72.668c0 2.6-1.012 5.044-2.851 6.883-1.838 1.838-4.283 2.851-6.883 2.851h-2.883l4.618-7.999 7.999-4.618zM90.367 60.816c-0.673 2.511-2.284 4.61-4.535 5.91l-2.497 1.441v-9.236l4.618-7.999 1.441 2.497c1.3 2.253 1.646 4.876 0.973 7.387z" fill="#d5b263" fill-rule="nonzero" stroke="none" stroke-width="1" stroke-linecap="butt" stroke-linejoin="miter" stroke-miterlimit="10" stroke-dasharray="" stroke-dashoffset="0" font-family="none" font-weight="none" font-size="none" text-anchor="none" style="mix-blend-mode: normal" data-fill-palette-color="tertiary"></path></g><g transform="matrix(1,0,0,1,64,158.3668393406847)"><svg viewBox="0 0 192 43.266321318630595" height="43.266321318630595" width="192"><g><svg viewBox="0 0 260.1996674972355 58.63480427570955" height="43.266321318630595" width="192"><g transform="matrix(1,0,0,1,0,21.214195355694805)"><svg viewBox="0 0 192 16.20641356431994" height="16.20641356431994" width="192"><g id="textblocktransform"><svg viewBox="0 0 192 16.20641356431994" height="16.20641356431994" width="192" id="textblock"><g><svg viewBox="0 0 192 16.20641356431994" height="16.20641356431994" width="192"><g transform="matrix(1,0,0,1,0,0)"><svg width="192" viewBox="2.45 -33.95 406.92 34.35000000000001" height="16.20641356431994" data-palette-color="#d5b263"><path d="M23.85-9.45L23.85-9.45Q23.85-4.95 20.63-2.27 17.4 0.4 12.15 0.4L12.15 0.4Q6.45 0.4 2.7-1.75L2.7-1.75 2.7-8.2Q7-5.1 12.1-5.1L12.1-5.1Q14.4-5.1 15.8-6.23 17.2-7.35 17.2-9.25L17.2-9.25Q17.2-10.15 16.85-10.85 16.5-11.55 15.43-12.25 14.35-12.95 13.78-13.25 13.2-13.55 11.4-14.35L11.4-14.35Q10.9-14.6 10.65-14.7L10.65-14.7Q8.8-15.55 7.65-16.23 6.5-16.9 5.15-18.05 3.8-19.2 3.13-20.8 2.45-22.4 2.45-24.45L2.45-24.45Q2.45-28.75 5.63-31.35 8.8-33.95 14.05-33.95L14.05-33.95Q18.8-33.95 22.25-32.3L22.25-32.3 22.25-26.2Q18.5-28.45 14.25-28.45L14.25-28.45Q11.9-28.45 10.58-27.4 9.25-26.35 9.25-24.7 9.25-23.05 10.68-21.98 12.1-20.9 14.95-19.6L14.95-19.6Q16.95-18.7 18.2-18.03 19.45-17.35 20.93-16.15 22.4-14.95 23.13-13.28 23.85-11.6 23.85-9.45ZM55.9-33.7L55.9 0 49.55 0 49.55-14.15 35.7-14.15 35.7 0 29.4 0 29.4-33.7 35.7-33.7 35.7-19.6 49.55-19.6 49.55-33.7 55.9-33.7ZM71.9-14.25L71.9-14.25 71.45-12.8 80.95-12.8 80.5-14.3Q78.8-19.7 77.72-23.38 76.65-27.05 76.4-28L76.4-28 76.2-29Q75.75-26.5 71.9-14.25ZM69.8-7.65L67.4 0 60.8 0 72.2-33.7 80.34-33.7 91.75 0 84.95 0 82.55-7.65 69.8-7.65ZM123.09-33.7L123.09 0 116.74 0 116.74-14.15 102.89-14.15 102.89 0 96.59 0 96.59-33.7 102.89-33.7 102.89-19.6 116.74-19.6 116.74-33.7 123.09-33.7ZM150.19-5.15L150.19 0 130.09 0 130.09-33.7 149.99-33.7 149.99-28.55 136.44-28.55 136.44-19.4 148.49-19.4 148.49-14.3 136.44-14.3 136.44-5.15 150.19-5.15ZM162.79-14.05L162.79 0 156.49 0 156.49-33.7 163.64-33.7 171.74-19.65Q173.74-16.2 175.31-13.23 176.89-10.25 177.44-9L177.44-9 177.99-7.75Q177.59-11.9 177.59-19.65L177.59-19.65 177.59-33.7 183.94-33.7 183.94 0 176.74 0 168.54-14Q166.59-17.3 165.01-20.33 163.44-23.35 162.84-24.7L162.84-24.7 162.24-26.1Q162.79-21.35 162.79-14.05L162.79-14.05ZM229.78-33.7L229.78 0 223.43 0 223.43-14.15 209.58-14.15 209.58 0 203.28 0 203.28-33.7 209.58-33.7 209.58-19.6 223.43-19.6 223.43-33.7 229.78-33.7ZM245.78-14.25L245.78-14.25 245.33-12.8 254.83-12.8 254.38-14.3Q252.68-19.7 251.61-23.38 250.53-27.05 250.28-28L250.28-28 250.08-29Q249.63-26.5 245.78-14.25ZM243.68-7.65L241.28 0 234.68 0 246.08-33.7 254.23-33.7 265.63 0 258.83 0 256.43-7.65 243.68-7.65ZM277.18-13.15L276.18 0 269.88 0 272.58-33.7 279.78-33.7 284.38-21.45Q285.58-18.35 286.63-15.28 287.68-12.2 288.13-10.7L288.13-10.7 288.58-9.15Q290.13-14.35 292.88-21.45L292.88-21.45 297.58-33.7 304.78-33.7 308.08 0 301.78 0 300.58-13.15 299.68-24.95Q297.88-19.8 295.38-13.15L295.38-13.15 290.68-0.5 286.38-0.5 281.78-13.15 277.83-24.8Q277.83-22.35 277.18-13.15L277.18-13.15ZM325.48 0L325.48 0 314.48 0 314.48-33.7 325.48-33.7Q333.03-33.7 337.83-29.05 342.63-24.4 342.63-17.3L342.63-17.3Q342.63-9.55 337.98-4.78 333.33 0 325.48 0ZM325.28-28.4L325.28-28.4 320.93-28.4 320.93-5.25 325.38-5.25Q330.68-5.25 333.43-8.53 336.18-11.8 336.18-17.3L336.18-17.3Q336.18-22.15 333.25-25.28 330.33-28.4 325.28-28.4ZM357.22-14.25L357.22-14.25 356.77-12.8 366.27-12.8 365.82-14.3Q364.12-19.7 363.05-23.38 361.97-27.05 361.72-28L361.72-28 361.52-29Q361.07-26.5 357.22-14.25ZM355.12-7.65L352.72 0 346.12 0 357.52-33.7 365.67-33.7 377.07 0 370.27 0 367.87-7.65 355.12-7.65ZM388.22-14.05L388.22 0 381.92 0 381.92-33.7 389.07-33.7 397.17-19.65Q399.17-16.2 400.75-13.23 402.32-10.25 402.87-9L402.87-9 403.42-7.75Q403.02-11.9 403.02-19.65L403.02-19.65 403.02-33.7 409.37-33.7 409.37 0 402.17 0 393.97-14Q392.02-17.3 390.44-20.33 388.87-23.35 388.27-24.7L388.27-24.7 387.67-26.1Q388.22-21.35 388.22-14.05L388.22-14.05Z" opacity="1" transform="matrix(1,0,0,1,0,0)" fill="#d5b263" class="wordmark-text-0" data-fill-palette-color="primary" id="text-0"></path></svg></g></svg></g></svg></g></svg></g><g transform="matrix(1,0,0,1,201.564863221526,0)"><svg viewBox="0 0 58.63480427570955 58.63480427570955" height="58.63480427570955" width="58.63480427570955"><g><svg viewBox="0 0 58.63480427570955 58.63480427570955" height="58.63480427570955" width="58.63480427570955"><g transform="matrix(1,0,0,1,16.787326060007494,15.497046232221377)"><svg viewBox="0 0 25.060152155694563 27.640711811266794" height="27.640711811266794" width="25.060152155694563"><g><svg xmlns="http://www.w3.org/2000/svg" data-name="Layer 1" viewBox="5.777366789483044 1.2235579212357353 88.4452664210339 97.55288415752852" x="0" y="0" height="27.640711811266794" width="25.060152155694563" class="icon-cg-0" data-fill-palette-color="accent" id="cg-0"><path d="M51.1 82.46v3.13A35.6 35.6 0 0 0 66.52 18.48a0.73 0.73 0 0 1-0.07-1.26L72.94 13a1.16 1.16 0 0 1 1.27 0A44.24 44.24 0 0 1 51.1 94.24v3.18A1.34 1.34 0 0 1 49 98.54L37.55 91.06a1.34 1.34 0 0 1 0-2.24L49 81.34a1.34 1.34 0 0 1 2.07 1.12ZM62.45 8.94L51 1.46A1.34 1.34 0 0 0 48.9 2.58V5.76A44.24 44.24 0 0 0 25.79 87a1.16 1.16 0 0 0 1.27 0l6.49-4.23a0.73 0.73 0 0 0-0.07-1.26A35.6 35.6 0 0 1 48.9 14.41v3.13A1.34 1.34 0 0 0 51 18.66l11.49-7.48a1.34 1.34 0 0 0 0-2.24ZM50 43.68A6.32 6.32 0 1 0 56.32 50 6.33 6.33 0 0 0 50 43.68ZM68.1 29.44l2.46 2.46a3.15 3.15 0 0 1 0.35 4l-2.39 3.41a21.17 21.17 0 0 1 2.12 5.1l4.1 0.72a3.15 3.15 0 0 1 2.61 3.1v3.47a3.15 3.15 0 0 1-2.61 3.1l-4.09 0.72a21.2 21.2 0 0 1-2.12 5.1l2.39 3.41a3.15 3.15 0 0 1-0.35 4L68.1 70.56a3.15 3.15 0 0 1-4 0.35l-3.41-2.39a21.26 21.26 0 0 1-5.1 2.12l-0.72 4.09a3.15 3.15 0 0 1-3.1 2.61H48.26a3.15 3.15 0 0 1-3.1-2.61l-0.72-4.09a21.26 21.26 0 0 1-5.1-2.12l-3.41 2.39a3.15 3.15 0 0 1-4-0.35L29.44 68.1a3.15 3.15 0 0 1-0.35-4l2.39-3.41a21.22 21.22 0 0 1-2.12-5.1l-4.09-0.72a3.15 3.15 0 0 1-2.61-3.1V48.26a3.15 3.15 0 0 1 2.61-3.1l4.1-0.72a21.19 21.19 0 0 1 2.12-5.1l-2.39-3.41a3.15 3.15 0 0 1 0.35-4l2.46-2.46a3.15 3.15 0 0 1 4-0.35l3.41 2.39a21.26 21.26 0 0 1 5.1-2.12l0.72-4.09a3.15 3.15 0 0 1 3.1-2.61h3.48a3.15 3.15 0 0 1 3.1 2.61l0.72 4.09a21.25 21.25 0 0 1 5.1 2.12l3.41-2.39A3.15 3.15 0 0 1 68.1 29.44ZM62.05 50A12.05 12.05 0 1 0 50 62.05 12.06 12.06 0 0 0 62.05 50Z" fill="#c9ad8b" data-fill-palette-color="accent"></path></svg></g></svg></g><g id="text-0"><path d="M4.744 19.888v0c0.399 0.129 0.669 0.374 0.811 0.736 0.148 0.363 0.147 0.775-0.003 1.236v0c-0.162 0.5-0.392 0.883-0.689 1.151v0l-0.854-0.277c0.393-0.285 0.663-0.652 0.809-1.101v0c0.066-0.202 0.069-0.383 0.008-0.543-0.056-0.151-0.169-0.254-0.34-0.31v0c-0.076-0.025-0.15-0.035-0.221-0.03-0.074 0.011-0.157 0.054-0.251 0.128-0.088 0.076-0.153 0.136-0.194 0.179-0.048 0.04-0.133 0.128-0.254 0.263v0c-0.033 0.038-0.06 0.068-0.081 0.089v0c-0.123 0.142-0.233 0.253-0.329 0.334-0.09 0.083-0.204 0.165-0.342 0.246-0.14 0.087-0.293 0.139-0.46 0.155-0.158 0.012-0.325-0.011-0.502-0.069v0c-0.38-0.123-0.638-0.361-0.775-0.713-0.144-0.354-0.14-0.766 0.012-1.234v0c0.136-0.418 0.325-0.755 0.57-1.011v0l0.807 0.262c-0.303 0.265-0.516 0.588-0.64 0.967v0c-0.066 0.202-0.071 0.379-0.015 0.531 0.052 0.143 0.15 0.238 0.296 0.284 0.146 0.047 0.286 0.023 0.422-0.072 0.134-0.089 0.299-0.242 0.495-0.459v0c0.14-0.15 0.256-0.27 0.348-0.359 0.1-0.093 0.222-0.187 0.364-0.28 0.151-0.098 0.309-0.155 0.475-0.171 0.172-0.014 0.35 0.009 0.533 0.068z" fill="#c9ad8b" data-fill-palette-color="accent"></path><path d="M4.341 13.422l4.102 2.251-0.427 0.778-1.723-0.945-0.926 1.688 1.723 0.945-0.418 0.762-4.102-2.252 0.417-0.761 1.715 0.941 0.926-1.688-1.714-0.941z" fill="#c9ad8b" data-fill-palette-color="accent"></path><path d="M8.845 12.113v0l0.11 0.177 0.875-0.984-0.196-0.094c-0.479-0.212-0.878-0.394-1.198-0.545-0.325-0.155-0.526-0.254-0.604-0.298v0l-0.124-0.07c0.147 0.185 0.526 0.789 1.137 1.814zM9.339 12.939l0.564 0.957-0.61 0.685-2.441-4.296 0.756-0.849 4.544 1.933-0.624 0.701-1.015-0.45z" fill="#c9ad8b" data-fill-palette-color="accent"></path><path d="M13.414 4.514l2.793 3.754-0.712 0.53-1.174-1.577-1.545 1.15 1.174 1.577-0.697 0.518-2.793-3.754 0.696-0.519 1.168 1.569 1.545-1.149-1.168-1.569z" fill="#c9ad8b" data-fill-palette-color="accent"></path><path d="M19.955 5.634l0.308 0.649-2.516 1.192-2.004-4.228 2.497-1.184 0.308 0.649-1.704 0.808 0.542 1.145 1.515-0.718 0.304 0.64-1.515 0.718 0.543 1.145z" fill="#c9ad8b" data-fill-palette-color="accent"></path><path d="M22.2 3.693l0.477 1.896-0.842 0.212-1.14-4.539 0.958-0.24 1.568 1.612c0.26 0.271 0.494 0.521 0.702 0.75 0.208 0.229 0.35 0.396 0.424 0.5v0l0.119 0.145c-0.133-0.364-0.286-0.895-0.461-1.592v0l-0.474-1.887 0.861-0.216 1.139 4.539-0.967 0.243-1.587-1.608c-0.249-0.253-0.478-0.497-0.688-0.733-0.21-0.235-0.356-0.408-0.438-0.517v0l-0.124-0.164c0.152 0.414 0.31 0.948 0.473 1.599z" fill="#c9ad8b" data-fill-palette-color="accent"></path><path d="M33.883 0.277l-0.352 4.666-0.886-0.067 0.148-1.96-1.92-0.144-0.148 1.96-0.865-0.066 0.352-4.666 0.865 0.065-0.147 1.95 1.92 0.145 0.147-1.95z" fill="#c9ad8b" data-fill-palette-color="accent"></path><path d="M36.938 3.836v0l-0.116 0.173 1.258 0.391 0.005-0.218c-0.005-0.524-0.004-0.962 0.001-1.316 0.007-0.36 0.014-0.584 0.02-0.673v0l0.013-0.142c-0.107 0.211-0.501 0.806-1.181 1.785zM36.39 4.627l-0.638 0.91-0.876-0.272 2.902-3.999 1.086 0.337 0.119 4.936-0.896-0.278-0.011-1.11z" fill="#c9ad8b" data-fill-palette-color="accent"></path><path d="M41.936 6.057l-1.05 1.5-0.756-0.448 2.711-3.833 0.858 0.508-0.314 1.785c-0.052 0.309-0.106 0.61-0.163 0.901-0.066 0.294-0.117 0.511-0.154 0.652v0l-0.051 0.224c0.368-0.347 0.831-0.737 1.389-1.172v0l1.423-1.129 0.858 0.509-1.989 4.26-0.756-0.447 0.793-1.653 0.722-1.474c-0.384 0.322-0.833 0.689-1.349 1.103v0l-1.452 1.181-0.516-0.305 0.346-1.837 0.351-1.67c-0.115 0.195-0.416 0.643-0.901 1.345z" fill="#c9ad8b" data-fill-palette-color="accent"></path><path d="M46.945 11.944v0l-1.088-1.07 3.281-3.337 1.088 1.07c0.498 0.49 0.754 1.045 0.769 1.666 0.019 0.616-0.202 1.159-0.664 1.628v0c-0.504 0.512-1.066 0.776-1.686 0.791-0.616 0.01-1.183-0.239-1.7-0.748zM49.687 9.113v0l-0.434-0.427-2.252 2.291 0.441 0.434c0.351 0.345 0.724 0.497 1.118 0.456 0.395-0.032 0.772-0.23 1.131-0.595v0c0.312-0.318 0.474-0.677 0.485-1.077 0.006-0.395-0.157-0.756-0.489-1.082z" fill="#c9ad8b" data-fill-palette-color="accent"></path><path d="M51.841 14.816v0l-0.2 0.058 0.712 1.108 0.144-0.164c0.333-0.404 0.616-0.74 0.847-1.007 0.237-0.271 0.387-0.438 0.449-0.502v0l0.101-0.1c-0.217 0.092-0.902 0.295-2.053 0.607zM50.913 15.069l-1.073 0.287-0.497-0.772 4.795-1.196 0.615 0.957-3.084 3.856-0.508-0.789 0.707-0.857z" fill="#c9ad8b" data-fill-palette-color="accent"></path><path d="M54.377 19.614l-1.826 0.698-0.311-0.81 4.371-1.673 0.353 0.923-1.414 1.748c-0.238 0.29-0.458 0.553-0.661 0.787-0.202 0.234-0.351 0.394-0.446 0.481v0l-0.13 0.135c0.346-0.175 0.855-0.391 1.526-0.648v0l1.817-0.695 0.317 0.829-4.37 1.672-0.357-0.931 1.407-1.767c0.222-0.277 0.437-0.534 0.645-0.771 0.209-0.237 0.362-0.402 0.462-0.497v0l0.148-0.142c-0.393 0.2-0.904 0.421-1.531 0.661z" fill="#c9ad8b" data-fill-palette-color="accent"></path><path d="M3.908 40.19v0c-0.405 0.132-0.772 0.09-1.1-0.125-0.333-0.206-0.575-0.541-0.725-1.002v0c-0.165-0.506-0.203-0.959-0.117-1.358v0l0.854-0.278c-0.149 0.468-0.149 0.93 0 1.386v0c0.066 0.202 0.167 0.351 0.303 0.447 0.14 0.087 0.296 0.103 0.466 0.047v0c0.076-0.025 0.141-0.06 0.197-0.106 0.053-0.052 0.095-0.139 0.125-0.261 0.032-0.115 0.053-0.203 0.061-0.261 0.009-0.059 0.022-0.179 0.041-0.36v0c0.011-0.053 0.015-0.092 0.013-0.119v0c0.024-0.183 0.051-0.338 0.079-0.467 0.024-0.12 0.067-0.256 0.13-0.409 0.062-0.153 0.157-0.282 0.283-0.386 0.119-0.109 0.27-0.193 0.453-0.252v0c0.386-0.126 0.739-0.083 1.059 0.127 0.327 0.208 0.565 0.544 0.716 1.005v0c0.138 0.424 0.18 0.812 0.127 1.166v0l-0.806 0.262c0.089-0.393 0.072-0.779-0.052-1.158v0c-0.068-0.209-0.166-0.359-0.293-0.45-0.132-0.083-0.271-0.101-0.417-0.054-0.145 0.047-0.248 0.151-0.308 0.31-0.054 0.157-0.096 0.381-0.128 0.671v0c-0.025 0.204-0.048 0.369-0.07 0.495-0.02 0.132-0.062 0.282-0.126 0.451-0.066 0.162-0.164 0.302-0.293 0.42-0.125 0.111-0.282 0.197-0.472 0.259z" fill="#c9ad8b" data-fill-palette-color="accent"></path><path d="M9.492 43.549l-4.137 2.271-0.427-0.779 1.74-0.955-0.931-1.697-1.741 0.956-0.427-0.779 4.137-2.271 0.427 0.778-1.731 0.951 0.931 1.697 1.732-0.951z" fill="#c9ad8b" data-fill-palette-color="accent"></path><path d="M9.171 47.371v0l-0.189 0.088 0.882 0.991 0.117-0.184c0.271-0.455 0.501-0.833 0.688-1.133 0.192-0.305 0.314-0.493 0.365-0.566v0l0.084-0.115c-0.205 0.12-0.854 0.426-1.947 0.919zM8.285 47.772l-1.022 0.456-0.611-0.685 4.587-1.946 0.756 0.849-2.463 4.331-0.631-0.708 0.572-0.963z" fill="#c9ad8b" data-fill-palette-color="accent"></path><path d="M16.929 50.566l-2.817 3.787-0.712-0.53 1.185-1.593-1.553-1.156-1.185 1.594-0.713-0.531 2.817-3.786 0.712 0.53-1.179 1.585 1.553 1.155 1.179-1.585z" fill="#c9ad8b" data-fill-palette-color="accent"></path><path d="M19.072 56.044l-0.308 0.649-2.542-1.205 2.021-4.265 2.515 1.193-0.307 0.649-1.713-0.812-0.552 1.163 1.524 0.722-0.303 0.64-1.524-0.722-0.551 1.163z" fill="#c9ad8b" data-fill-palette-color="accent"></path><path d="M22.293 55.706l-0.479 1.906-0.862-0.216 1.151-4.577 0.967 0.243 0.625 2.184c0.101 0.361 0.19 0.692 0.264 0.992 0.074 0.307 0.122 0.524 0.145 0.654v0l0.036 0.184c0.055-0.384 0.171-0.927 0.348-1.631v0l0.479-1.906 0.861 0.216-1.15 4.577-0.977-0.245-0.637-2.177c-0.098-0.347-0.184-0.674-0.257-0.98-0.072-0.313-0.122-0.538-0.149-0.675v0l-0.032-0.204c-0.055 0.439-0.167 0.99-0.333 1.655z" fill="#c9ad8b" data-fill-palette-color="accent"></path><path d="M33.428 53.654l0.349 4.706-0.885 0.066-0.147-1.98-1.931 0.143 0.147 1.98-0.885 0.066-0.349-4.707 0.885-0.065 0.146 1.97 1.931-0.144-0.146-1.97z" fill="#c9ad8b" data-fill-palette-color="accent"></path><path d="M36.772 55.532v0l0.002 0.208 1.268-0.392-0.119-0.182c-0.302-0.436-0.55-0.801-0.746-1.096-0.197-0.301-0.318-0.49-0.363-0.567v0l-0.07-0.124c0.024 0.236 0.034 0.954 0.028 2.153zM36.769 56.504l-0.009 1.12-0.877 0.271 0.133-4.98 1.086-0.336 2.919 4.038-0.906 0.28-0.639-0.92z" fill="#c9ad8b" data-fill-palette-color="accent"></path><path d="M41.831 53.618l0.819 1.66-0.756 0.446-2.074-4.256 0.868-0.512 1.422 1.152c0.243 0.189 0.482 0.384 0.717 0.585 0.231 0.196 0.4 0.343 0.505 0.444v0l0.163 0.158c-0.121-0.493-0.239-1.091-0.354-1.795v0l-0.314-1.808 0.876-0.518 2.796 3.831-0.765 0.451-1.076-1.508-0.949-1.351c0.1 0.497 0.208 1.071 0.322 1.721v0l0.336 1.865-0.524 0.309-1.453-1.204-1.308-1.116c0.115 0.195 0.365 0.677 0.749 1.446z" fill="#c9ad8b" data-fill-palette-color="accent"></path><path d="M49.409 50.365v0l-1.104 1.083-3.306-3.368 1.104-1.083c0.498-0.489 1.061-0.738 1.686-0.747 0.626 0.001 1.169 0.237 1.631 0.707v0c0.508 0.517 0.764 1.087 0.767 1.708 0.004 0.621-0.256 1.188-0.778 1.7zM46.599 47.545v0l-0.434 0.426 2.271 2.314 0.442-0.433c0.356-0.349 0.517-0.722 0.483-1.117-0.029-0.4-0.223-0.783-0.582-1.149v0c-0.317-0.323-0.675-0.493-1.075-0.511-0.4-0.018-0.768 0.139-1.105 0.47z" fill="#c9ad8b" data-fill-palette-color="accent"></path><path d="M51.458 44.746v0l0.135 0.158 0.719-1.115-0.209-0.063c-0.511-0.14-0.937-0.259-1.276-0.359-0.345-0.103-0.559-0.17-0.642-0.2v0l-0.134-0.051c0.171 0.165 0.639 0.709 1.407 1.63zM52.081 45.492l0.714 0.863-0.497 0.772-3.103-3.898 0.616-0.956 4.832 1.213-0.513 0.797-1.082-0.293z" fill="#c9ad8b" data-fill-palette-color="accent"></path><path d="M54.008 40.041l1.835 0.704-0.318 0.829-4.406-1.69 0.358-0.932 2.242-0.358c0.371-0.057 0.71-0.105 1.017-0.144 0.313-0.037 0.535-0.058 0.666-0.065v0l0.187-0.013c-0.374-0.101-0.9-0.281-1.577-0.542v0l-1.835-0.704 0.318-0.829 4.407 1.691-0.362 0.941-2.236 0.37c-0.356 0.056-0.691 0.102-1.005 0.139-0.319 0.034-0.549 0.057-0.688 0.067v0l-0.206 0.007c0.429 0.108 0.963 0.284 1.603 0.529z" fill="#c9ad8b" data-fill-palette-color="accent"></path><path d="M0.603 29.887c0-0.996 0.807-1.803 1.802-1.802 0.996 0 1.803 0.807 1.803 1.802 0 0.996-0.807 1.803-1.803 1.803-0.996 0-1.803-0.807-1.802-1.803z" fill="#c9ad8b" data-fill-palette-color="accent"></path><path d="M54.427 29.887c0-0.996 0.807-1.803 1.802-1.802 0.996 0 1.803 0.807 1.803 1.802 0 0.996-0.807 1.803-1.803 1.803-0.996 0-1.803-0.807-1.802-1.803z" fill="#c9ad8b" data-fill-palette-color="accent"></path></g><g id="text-1"></g></svg></g></svg></g></svg></g></svg></g></svg></g><defs></defs></svg><rect width="320" height="360" fill="none" stroke="none" visibility="hidden"></rect></g></svg></g></svg>