<svg xmlns="http://www.w3.org/2000/svg" version="1.1" xmlns:xlink="http://www.w3.org/1999/xlink" xmlns:svgjs="http://svgjs.dev/svgjs" width="2000" height="1500" viewBox="0 0 2000 1500"><rect width="2000" height="1500" fill="#293040"></rect><g transform="matrix(0.75,0,0,0.75,249.56148517220663,620.5122473452736)"><svg viewBox="0 0 381 66" data-background-color="#293040" preserveAspectRatio="xMidYMid meet" height="346" width="2000" xmlns="http://www.w3.org/2000/svg" xmlns:xlink="http://www.w3.org/1999/xlink"><g id="tight-bounds" transform="matrix(1,0,0,1,0.11138276625950994,-0.06669874677479015)"><svg viewBox="0 0 380.777234467481 66.13339749354958" height="66.13339749354958" width="380.777234467481"><g><svg viewBox="0 0 380.777234467481 66.13339749354958" height="66.13339749354958" width="380.777234467481"><g><svg viewBox="0 0 356.12052 66.13339749354958" height="66.13339749354958" width="356.12052"><g><path d="M0 66.133v-66.133h356.121v66.133z" fill="#d5b263" stroke="transparent" stroke-width="0" rx="0%" data-fill-palette-color="tertiary"></path><path d="M3.283 62.85v-59.567h349.554v59.567z" fill="#293040" stroke="transparent" stroke-width="0" rx="0%" data-fill-palette-color="quaternary"></path><path d="M9.85 56.284v-46.434h336.421v46.434z" fill="#d5b263" stroke="transparent" stroke-width="0" data-fill-palette-color="tertiary"></path></g><g transform="matrix(1,0,0,1,19.69974,19.699740000000002)" id="textblocktransform"><svg viewBox="0 0 316.72104 26.733917493549576" height="26.733917493549576" width="316.72104" id="textblock"><g><svg viewBox="0 0 316.72104 26.733917493549576" height="26.733917493549576" width="316.72104"><g transform="matrix(1,0,0,1,0,0)"><svg width="316.72104" viewBox="2.45 -33.95 406.92 34.35000000000001" height="26.733917493549576" data-palette-color="#293040"><path d="M23.85-9.45L23.85-9.45Q23.85-4.95 20.63-2.27 17.4 0.4 12.15 0.4L12.15 0.4Q6.45 0.4 2.7-1.75L2.7-1.75 2.7-8.2Q7-5.1 12.1-5.1L12.1-5.1Q14.4-5.1 15.8-6.23 17.2-7.35 17.2-9.25L17.2-9.25Q17.2-10.15 16.85-10.85 16.5-11.55 15.43-12.25 14.35-12.95 13.78-13.25 13.2-13.55 11.4-14.35L11.4-14.35Q10.9-14.6 10.65-14.7L10.65-14.7Q8.8-15.55 7.65-16.23 6.5-16.9 5.15-18.05 3.8-19.2 3.13-20.8 2.45-22.4 2.45-24.45L2.45-24.45Q2.45-28.75 5.63-31.35 8.8-33.95 14.05-33.95L14.05-33.95Q18.8-33.95 22.25-32.3L22.25-32.3 22.25-26.2Q18.5-28.45 14.25-28.45L14.25-28.45Q11.9-28.45 10.58-27.4 9.25-26.35 9.25-24.7 9.25-23.05 10.68-21.98 12.1-20.9 14.95-19.6L14.95-19.6Q16.95-18.7 18.2-18.03 19.45-17.35 20.93-16.15 22.4-14.95 23.13-13.28 23.85-11.6 23.85-9.45ZM55.9-33.7L55.9 0 49.55 0 49.55-14.15 35.7-14.15 35.7 0 29.4 0 29.4-33.7 35.7-33.7 35.7-19.6 49.55-19.6 49.55-33.7 55.9-33.7ZM71.9-14.25L71.9-14.25 71.45-12.8 80.95-12.8 80.5-14.3Q78.8-19.7 77.72-23.38 76.65-27.05 76.4-28L76.4-28 76.2-29Q75.75-26.5 71.9-14.25ZM69.8-7.65L67.4 0 60.8 0 72.2-33.7 80.34-33.7 91.75 0 84.95 0 82.55-7.65 69.8-7.65ZM123.09-33.7L123.09 0 116.74 0 116.74-14.15 102.89-14.15 102.89 0 96.59 0 96.59-33.7 102.89-33.7 102.89-19.6 116.74-19.6 116.74-33.7 123.09-33.7ZM150.19-5.15L150.19 0 130.09 0 130.09-33.7 149.99-33.7 149.99-28.55 136.44-28.55 136.44-19.4 148.49-19.4 148.49-14.3 136.44-14.3 136.44-5.15 150.19-5.15ZM162.79-14.05L162.79 0 156.49 0 156.49-33.7 163.64-33.7 171.74-19.65Q173.74-16.2 175.31-13.23 176.89-10.25 177.44-9L177.44-9 177.99-7.75Q177.59-11.9 177.59-19.65L177.59-19.65 177.59-33.7 183.94-33.7 183.94 0 176.74 0 168.54-14Q166.59-17.3 165.01-20.33 163.44-23.35 162.84-24.7L162.84-24.7 162.24-26.1Q162.79-21.35 162.79-14.05L162.79-14.05ZM229.78-33.7L229.78 0 223.43 0 223.43-14.15 209.58-14.15 209.58 0 203.28 0 203.28-33.7 209.58-33.7 209.58-19.6 223.43-19.6 223.43-33.7 229.78-33.7ZM245.78-14.25L245.78-14.25 245.33-12.8 254.83-12.8 254.38-14.3Q252.68-19.7 251.61-23.38 250.53-27.05 250.28-28L250.28-28 250.08-29Q249.63-26.5 245.78-14.25ZM243.68-7.65L241.28 0 234.68 0 246.08-33.7 254.23-33.7 265.63 0 258.83 0 256.43-7.65 243.68-7.65ZM277.18-13.15L276.18 0 269.88 0 272.58-33.7 279.78-33.7 284.38-21.45Q285.58-18.35 286.63-15.28 287.68-12.2 288.13-10.7L288.13-10.7 288.58-9.15Q290.13-14.35 292.88-21.45L292.88-21.45 297.58-33.7 304.78-33.7 308.08 0 301.78 0 300.58-13.15 299.68-24.95Q297.88-19.8 295.38-13.15L295.38-13.15 290.68-0.5 286.38-0.5 281.78-13.15 277.83-24.8Q277.83-22.35 277.18-13.15L277.18-13.15ZM325.48 0L325.48 0 314.48 0 314.48-33.7 325.48-33.7Q333.03-33.7 337.83-29.05 342.63-24.4 342.63-17.3L342.63-17.3Q342.63-9.55 337.98-4.78 333.33 0 325.48 0ZM325.28-28.4L325.28-28.4 320.93-28.4 320.93-5.25 325.38-5.25Q330.68-5.25 333.43-8.53 336.18-11.8 336.18-17.3L336.18-17.3Q336.18-22.15 333.25-25.28 330.33-28.4 325.28-28.4ZM357.22-14.25L357.22-14.25 356.77-12.8 366.27-12.8 365.82-14.3Q364.12-19.7 363.05-23.38 361.97-27.05 361.72-28L361.72-28 361.52-29Q361.07-26.5 357.22-14.25ZM355.12-7.65L352.72 0 346.12 0 357.52-33.7 365.67-33.7 377.07 0 370.27 0 367.87-7.65 355.12-7.65ZM388.22-14.05L388.22 0 381.92 0 381.92-33.7 389.07-33.7 397.17-19.65Q399.17-16.2 400.75-13.23 402.32-10.25 402.87-9L402.87-9 403.42-7.75Q403.02-11.9 403.02-19.65L403.02-19.65 403.02-33.7 409.37-33.7 409.37 0 402.17 0 393.97-14Q392.02-17.3 390.44-20.33 388.87-23.35 388.27-24.7L388.27-24.7 387.67-26.1Q388.22-21.35 388.22-14.05L388.22-14.05Z" opacity="1" transform="matrix(1,0,0,1,0,0)" fill="#293040" class="wordmark-text-0" data-fill-palette-color="quaternary" id="text-0"></path></svg></g></svg></g></svg></g></svg></g><g transform="matrix(1,0,0,1,362.6871,14.593561758732033)"><svg viewBox="0 0 18.090134467480976 36.946273976085514" height="36.946273976085514" width="18.090134467480976"><g><svg xmlns="http://www.w3.org/2000/svg" xmlns:xlink="http://www.w3.org/1999/xlink" version="1.0" x="0" y="0" viewBox="26.095650092027423 1.3720002112703398 47.80194195258993 97.62799978872965" enable-background="new 0 0 100 100" xml:space="preserve" height="36.946273976085514" width="18.090134467480976" class="icon-icon-0" data-fill-palette-color="accent" id="icon-0"><g fill="#c9ad8b" data-fill-palette-color="accent"><path d="M41.279 20.884" fill="#c9ad8b" data-fill-palette-color="accent"></path></g><circle cx="50.071" cy="10.4" r="9.0" fill="#c9ad8b" data-fill-palette-color="accent"></circle><g fill="#c9ad8b" data-fill-palette-color="accent"><path d="M40 54v1.813 0.759 37.416C40 96.548 42.082 99 44.357 99h0.455C47.083 99 48 96.548 48 93.987V61h3v32.987C51 96.548 53.052 99 55.327 99h0.455C58.056 99 59 96.548 59 93.987V56.571v-0.759V54H40z" fill="#c9ad8b" data-fill-palette-color="accent"></path><path d="M73.666 49.428L62.338 22.939C61.807 21.698 60.531 21 59.097 21h-9.026l1.624 1.313-0.781 1.125 2.129 17.841-2.972 5.542-2.974-5.461 2.366-17.88-0.872-1.07 1.48-1.41-9.595-0.103c-1 0.096-2.382 0.806-2.88 1.984L26.336 49.428c-0.761 1.784 0.348 3.953 2.439 4.844l0.437 0.178c2.092 0.894 4.291 0.17 5.051-1.612L40 39.134V53h19V39.298l6.229 13.539c0.759 1.782 3.297 2.506 5.386 1.612l0.531-0.178C73.238 53.381 74.428 51.212 73.666 49.428z" fill="#c9ad8b" data-fill-palette-color="accent"></path></g></svg></g></svg></g></svg></g><defs></defs></svg><rect width="380.777234467481" height="66.13339749354958" fill="none" stroke="none" visibility="hidden"></rect></g></svg></g></svg>