<svg xmlns="http://www.w3.org/2000/svg" version="1.1" xmlns:xlink="http://www.w3.org/1999/xlink" xmlns:svgjs="http://svgjs.dev/svgjs" width="2000" height="1500" viewBox="0 0 2000 1500"><rect width="2000" height="1500" fill="#cf5260"></rect><g transform="matrix(0.75,0,0,0.75,249.090909090909,282.7536437246963)"><svg viewBox="0 0 396 247" data-background-color="#cf5260" preserveAspectRatio="xMidYMid meet" height="1247" width="2000" xmlns="http://www.w3.org/2000/svg" xmlns:xlink="http://www.w3.org/1999/xlink"><g id="tight-bounds" transform="matrix(1,0,0,1,0.2400000000000091,-0.09999999999999432)"><svg viewBox="0 0 395.52 247.2" height="247.2" width="395.52"><g><svg></svg></g><g><svg viewBox="0 0 395.52 247.2" height="247.2" width="395.52"><g transform="matrix(1,0,0,1,75.54432,73.26562606439032)"><svg viewBox="0 0 244.43135999999998 100.66874787121934" height="100.66874787121934" width="244.43135999999998"><g><svg viewBox="0 0 409.35931256306947 168.59411748618228" height="100.66874787121934" width="244.43135999999998"><g transform="matrix(1,0,0,1,0,7.912258743091144)"><svg viewBox="0 0 230.7132734693878 152.7696" height="152.7696" width="230.7132734693878"><g id="textblocktransform"><svg viewBox="0 0 230.7132734693878 152.7696" height="152.7696" width="230.7132734693878" id="textblock"><g><svg viewBox="0 0 230.7132734693878 152.7696" height="152.7696" width="230.7132734693878"><g transform="matrix(1,0,0,1,0,0)"><svg width="230.7132734693878" viewBox="2.45 -36.15 55.5 36.75" height="152.7696" data-palette-color="#f0f0f0"><g class="wordmark-text-0" data-fill-palette-color="primary" id="text-0"><path d="M16.6 0.6Q10.35 0.6 6.4-1.9 2.45-4.4 2.45-9.7L2.45-9.7 2.5-10.7 7.2-10.7Q7.1-10 7.1-9.65L7.1-9.65Q7.1-6.6 9.63-5.03 12.15-3.45 16.35-3.45L16.35-3.45Q21.05-3.45 23.55-4.93 26.05-6.4 26.05-9.15L26.05-9.15Q26.05-11 24.75-12.23 23.45-13.45 21.48-14.15 19.5-14.85 16.15-15.7L16.15-15.7Q12-16.75 9.45-17.73 6.9-18.7 5.1-20.63 3.3-22.55 3.3-25.7L3.3-25.7Q3.3-30.2 7.05-32.55 10.8-34.9 16.65-34.9L16.65-34.9Q22.5-34.9 26.15-32.52 29.8-30.15 29.8-25.25L29.8-25.25 29.8-24.65 25.15-24.65 25.15-25.4Q25.15-27.95 22.83-29.4 20.5-30.85 16.8-30.85L16.8-30.85Q12.85-30.85 10.48-29.65 8.1-28.45 8.1-26.05L8.1-26.05Q8.1-24.3 9.38-23.2 10.65-22.1 12.53-21.43 14.4-20.75 17.75-19.9L17.75-19.9Q21.9-18.85 24.53-17.85 27.15-16.85 28.98-14.93 30.8-13 30.8-9.9L30.8-9.9Q30.8-4.4 26.98-1.9 23.15 0.6 16.6 0.6L16.6 0.6ZM36.7 0L36.7-36.15 41.1-36.15 41.1-23.35 41.45-23.35Q44.2-26.9 49.75-26.9L49.75-26.9Q57.95-26.9 57.95-17.95L57.95-17.95 57.95 0 53.55 0 53.55-17.65Q53.55-20.8 52.15-22.03 50.75-23.25 48.1-23.25L48.1-23.25Q46.2-23.25 44.6-22.33 43-21.4 42.05-19.65 41.1-17.9 41.1-15.55L41.1-15.55 41.1 0 36.7 0Z" fill="#f0f0f0" data-fill-palette-color="primary"></path></g></svg></g></svg></g></svg></g></svg></g><g transform="matrix(1,0,0,1,266.77850955898776,0)"><svg viewBox="0 0 142.58080300408164 168.59411748618228" height="168.59411748618228" width="142.58080300408164"><g><svg xmlns="http://www.w3.org/2000/svg" viewBox="26.999884815175296 22.78344566248935 46.02032461063422 54.416554337510654" x="0" y="0" height="168.59411748618228" width="142.58080300408164" class="icon-icon-0" data-fill-palette-color="accent" id="icon-0"><g data-name="Calque 2" fill="#f0f0f0" data-fill-palette-color="accent"><path d="M67.66 57.73a20.95 20.95 0 1 0-36.54-14c0 0.55 0 1.12 0.07 1.69-1 2-2.42 4.82-3.21 6.37C27.41 53 27.41 53 27.38 53A4.35 4.35 0 0 0 27 54.81a4.41 4.41 0 0 0 4.4 4.4h0.4v4.85a5.35 5.35 0 0 0 5.34 5.35h5.43l2.32 7.79H71.33ZM46.37 75.2l-2.32-7.79H37.13a3.34 3.34 0 0 1-3.34-3.34l0-6.85H31.4a2.4 2.4 0 0 1-2.19-3.38c0-0.09 2.63-5.16 4-8a19.6 19.6 0 0 1-0.11-2.07A18.94 18.94 0 1 1 65.51 57.1l3.41 18.1ZM66.46 37.85l0.91-1.53-1.78 0a20.48 20.48 0 0 1-6.92-1.54c-3.86-1.54-7.92-2.95-11.42-1.79-5.19 1.72-8.72 7.84-8 11.64 0.07 0.35 0.14 0.67 0.21 1a8.71 8.71 0 0 0-2.81 4.55l2 0.44a7.2 7.2 0 0 1 1.58-2.94 4.24 4.24 0 0 0 1.17 1.45l0.18 0.15a12.31 12.31 0 0 0 8.18 3.11 11.81 11.81 0 0 0 3.73-0.6h0C59.28 49.85 66.17 38.33 66.46 37.85Zm-13.62 12h0a10.21 10.21 0 0 1-9.92-2.07l-0.27-0.23a2.49 2.49 0 0 1-0.8-1.1A5 5 0 0 1 43.65 46c5.14-0.3 7.46-2.78 7.55-2.89L49.72 41.8c-0.08 0.08-1.92 2-6.19 2.24a7 7 0 0 0-2.23 0.49l-0.06-0.27c-0.52-2.65 2.24-7.9 6.64-9.36A6.79 6.79 0 0 1 50 34.59c2.48 0 5.33 1 7.91 2.06a24.24 24.24 0 0 0 6 1.56C61.46 42 56.55 48.64 52.84 49.87Z" fill="#f0f0f0" data-fill-palette-color="accent"></path></g></svg></g></svg></g></svg></g></svg></g><g><path d="M245.816 0c68.262 0 123.6 55.338 123.6 123.6 0 68.262-55.338 123.6-123.6 123.6-46.037 0-86.196-25.169-107.466-62.498l4.762 0c20.846 34.964 59.04 58.385 102.704 58.385 65.991 0 119.487-53.496 119.487-119.487 0-65.991-53.496-119.487-119.487-119.487-43.664 0-81.858 23.421-102.704 58.385h-4.762c21.27-37.329 61.428-62.498 107.466-62.498z" fill="#f0f0f0" stroke="transparent" data-fill-palette-color="tertiary"></path></g></svg></g><defs></defs></svg><rect width="395.52" height="247.2" fill="none" stroke="none" visibility="hidden"></rect></g></svg></g></svg>